<svg width="1920" height="1131" viewBox="0 0 1920 1131" fill="none" xmlns="http://www.w3.org/2000/svg">
<path d="M1681.72 139.259C1681.72 128.213 1672.76 119.259 1661.72 119.259H1462.91C1451.86 119.259 1442.91 128.213 1442.91 139.259V934.878C1442.91 945.924 1451.86 954.878 1462.91 954.878H1682.51C1686.91 954.878 1691.18 956.327 1694.67 958.999L1837.6 1068.45C1841.09 1071.12 1845.36 1072.57 1849.76 1072.57H1949C1960.05 1072.57 1969 1063.62 1969 1052.57V539.867C1969 528.821 1960.05 519.867 1949 519.867H1701.72C1690.67 519.867 1681.72 510.913 1681.72 499.867V139.259Z" fill="#151518"/>
<path d="M140.026 1111C140.026 1122.05 148.98 1131 160.026 1131H343.034C354.08 1131 363.034 1122.05 363.034 1111V315.57C363.034 304.525 354.08 295.57 343.034 295.57H142.85C131.804 295.57 122.85 304.525 122.85 315.57V350.383C122.85 361.429 113.895 370.383 102.85 370.383H20C8.95431 370.383 0 379.337 0 390.383V651.877C0 662.923 8.9543 671.877 20 671.877H120.026C131.071 671.877 140.026 680.831 140.026 691.877V1111Z" fill="#151518"/>
<path d="M1685.96 5.99999C1685.96 -5.04571 1694.91 -14 1705.96 -14H1799.27C1810.32 -14 1819.27 -5.0457 1819.27 6V99.2587C1819.27 110.304 1810.32 119.259 1799.27 119.259H1705.96C1694.91 119.259 1685.96 110.304 1685.96 99.2587V5.99999Z" fill="#151518"/>
<path d="M0 104.406C0 93.3608 8.95431 84.4064 20 84.4064H92.8073C103.853 84.4064 112.807 93.3607 112.807 104.406V275.57C112.807 286.616 103.853 295.57 92.8073 295.57H20C8.95429 295.57 0 286.616 0 275.57V104.406Z" fill="#151518"/>
<path d="M1843.89 268.417C1843.89 257.371 1852.84 248.417 1863.89 248.417H1949C1960.05 248.417 1969 257.371 1969 268.417V428.305C1969 439.351 1960.05 448.305 1949 448.305H1863.89C1852.84 448.305 1843.89 439.351 1843.89 428.305V268.417Z" fill="#151518"/>
</svg>
