<svg width="16" height="16" viewBox="0 0 16 16" fill="none" xmlns="http://www.w3.org/2000/svg">
<path d="M3.11904 9.60039C3.9582 9.60039 4.63847 8.88404 4.63847 8.00039C4.63847 7.11673 3.9582 6.40039 3.11904 6.40039C2.27988 6.40039 1.59961 7.11673 1.59961 8.00039C1.59961 8.88404 2.27988 9.60039 3.11904 9.60039Z" fill="#121214"/>
<path d="M7.9999 9.60039C8.83906 9.60039 9.51933 8.88404 9.51933 8.00039C9.51933 7.11673 8.83906 6.40039 7.9999 6.40039C7.16074 6.40039 6.48047 7.11673 6.48047 8.00039C6.48047 8.88404 7.16074 9.60039 7.9999 9.60039Z" fill="#121214"/>
<path d="M12.8798 9.60039C13.7189 9.60039 14.3992 8.88404 14.3992 8.00039C14.3992 7.11673 13.7189 6.40039 12.8798 6.40039C12.0406 6.40039 11.3604 7.11673 11.3604 8.00039C11.3604 8.88404 12.0406 9.60039 12.8798 9.60039Z" fill="#121214"/>
</svg>
