<svg width="24" height="17" viewBox="0 0 24 17" fill="none" xmlns="http://www.w3.org/2000/svg">
<path d="M19.98 2.16924C18.0693 0.631736 15.0468 0.371111 14.9175 0.361736C14.7168 0.344861 14.5256 0.457361 14.4431 0.642986C14.4356 0.654236 14.37 0.806111 14.2968 1.04236C15.5606 1.25611 17.1131 1.68549 18.5175 2.55736C18.7425 2.69611 18.8118 2.99236 18.6731 3.21736C18.5812 3.36549 18.4256 3.44611 18.2643 3.44611C18.1781 3.44611 18.09 3.42174 18.0112 3.37299C15.5962 1.87486 12.5812 1.79986 12 1.79986C11.4187 1.79986 8.40184 1.87486 5.98871 3.37299C5.76371 3.51361 5.46746 3.44424 5.32871 3.21924C5.18809 2.99236 5.25746 2.69799 5.48246 2.55736C6.88684 1.68736 8.43934 1.25611 9.70309 1.04424C9.62996 0.806111 9.56434 0.656111 9.55871 0.642986C9.47434 0.457361 9.28496 0.341111 9.08246 0.361736C8.95309 0.371111 5.93059 0.631736 3.99371 2.18986C2.98309 3.12549 0.959961 8.59299 0.959961 13.3199C0.959961 13.4042 0.982461 13.4849 1.02371 13.558C2.41871 16.0105 6.22684 16.6517 7.09496 16.6799C7.09871 16.6799 7.10434 16.6799 7.10996 16.6799C7.26371 16.6799 7.40809 16.6067 7.49809 16.483L8.37559 15.2755C6.00746 14.6642 4.79809 13.6255 4.72871 13.5636C4.52996 13.3892 4.51121 13.0855 4.68746 12.8867C4.86184 12.688 5.16559 12.6692 5.36434 12.8436C5.39246 12.8699 7.61996 14.7599 12 14.7599C16.3875 14.7599 18.615 12.8624 18.6375 12.8436C18.8362 12.6711 19.1381 12.688 19.3143 12.8886C19.4887 13.0874 19.47 13.3892 19.2712 13.5636C19.2018 13.6255 17.9925 14.6642 15.6243 15.2755L16.5018 16.483C16.5918 16.6067 16.7362 16.6799 16.89 16.6799C16.8956 16.6799 16.9012 16.6799 16.905 16.6799C17.7731 16.6517 21.5812 16.0105 22.9762 13.558C23.0175 13.4849 23.04 13.4042 23.04 13.3199C23.04 8.59299 21.0168 3.12549 19.98 2.16924ZM8.87996 11.3999C7.95184 11.3999 7.19996 10.5411 7.19996 9.47986C7.19996 8.41861 7.95184 7.55986 8.87996 7.55986C9.80809 7.55986 10.56 8.41861 10.56 9.47986C10.56 10.5411 9.80809 11.3999 8.87996 11.3999ZM15.12 11.3999C14.1918 11.3999 13.44 10.5411 13.44 9.47986C13.44 8.41861 14.1918 7.55986 15.12 7.55986C16.0481 7.55986 16.8 8.41861 16.8 9.47986C16.8 10.5411 16.0481 11.3999 15.12 11.3999Z" fill="#8C8E94"/>
</svg>
