<svg width="163" height="42" viewBox="0 0 163 42" fill="none" xmlns="http://www.w3.org/2000/svg">
<path d="M44.5888 28.234H36.8623V9.47583H44.5888C47.6827 9.47583 50.1032 10.3003 51.8501 11.9482C53.5878 13.6054 54.4566 15.9076 54.4566 18.8549C54.4566 21.8031 53.5924 24.1008 51.8632 25.7488C50.1255 27.4059 47.7004 28.234 44.5888 28.234ZM41.1572 24.5327H44.5878C46.3162 24.5327 47.6464 24.0139 48.5776 22.9762C49.4994 21.9386 49.9608 20.5651 49.9608 18.8558C49.9608 17.1465 49.4994 15.7731 48.5776 14.7354C47.6464 13.6978 46.3171 13.179 44.5878 13.179H41.1572V24.5327Z" fill="white"/>
<path d="M72.9406 21.5371L72.8606 22.5573H61.5574C61.5574 23.3598 61.8811 24.0488 62.5285 24.6244C63.1583 25.2091 64.0662 25.501 65.255 25.501C65.9285 25.501 66.5313 25.3875 67.0634 25.1606C67.5685 24.9337 67.9015 24.7077 68.0606 24.4807L68.3136 24.1669H72.6094C72.5917 24.2895 72.5517 24.4414 72.4894 24.6244C72.4187 24.8422 72.2234 25.1871 71.9043 25.6575C71.5676 26.1717 71.1638 26.6164 70.6941 26.9916C70.1797 27.3841 69.4578 27.7282 68.5266 28.0246C67.5508 28.3385 66.4606 28.4959 65.255 28.4959C62.9323 28.4959 61.0476 27.881 59.603 26.6512C58.1574 25.4214 57.4355 23.7167 57.4355 21.5362C57.4355 19.3556 58.1537 17.6509 59.59 16.4211C61.0262 15.1913 62.8969 14.5764 65.202 14.5764C67.4894 14.5764 69.3508 15.1913 70.7871 16.4211C72.2224 17.6518 72.9406 19.3565 72.9406 21.5371ZM65.2011 17.5731C64.0662 17.5731 63.1881 17.8522 62.5676 18.4104C61.9295 18.9777 61.6104 19.5743 61.6104 20.203H68.7648C68.7648 19.5579 68.4587 18.9558 67.8476 18.3976C67.2178 17.8477 66.336 17.5731 65.2011 17.5731Z" fill="white"/>
<path d="M88.9792 18.9861H84.9495C84.9495 18.7591 84.9272 18.5807 84.8835 18.4498C84.8388 18.319 84.7411 18.1616 84.5904 17.9786C84.2797 17.6208 83.4909 17.4424 82.223 17.4424C80.5384 17.4424 79.6965 17.8523 79.6965 18.6722C79.6965 19.0647 80.0379 19.3484 80.7207 19.5223C81.3765 19.697 82.2016 19.8315 83.1942 19.9276C84.249 20.0237 85.2202 20.1628 86.1067 20.3458C87.0639 20.5379 87.889 20.9607 88.5802 21.6149C89.263 22.26 89.6044 23.1284 89.6044 24.2182C89.6044 27.0878 87.2239 28.5134 82.463 28.496C77.7468 28.496 75.3877 26.9789 75.3877 23.9437V23.5255H79.4174V23.9437C79.4174 24.5458 79.6565 24.9768 80.1356 25.2385C80.6146 25.5002 81.3905 25.631 82.463 25.631C84.5197 25.631 85.5569 25.1781 85.5746 24.2704C85.5746 23.8778 85.3309 23.5731 84.8435 23.3544C84.3644 23.154 83.7486 23.0186 82.9951 22.9491C82.2146 22.8969 81.4211 22.8008 80.6146 22.6617C79.7542 22.5135 78.9607 22.3305 78.2342 22.1127C77.5161 21.8949 76.904 21.485 76.3989 20.8829C75.9021 20.29 75.6537 19.5442 75.6537 18.6457C75.6537 17.3198 76.2472 16.3087 77.4361 15.6105C78.6147 14.9215 80.2379 14.5774 82.303 14.5774C86.7541 14.5692 88.9792 16.0387 88.9792 18.9861Z" fill="white"/>
<path d="M99.8055 28.4959C97.5004 28.4959 95.6297 27.881 94.1935 26.6512C92.7572 25.4214 92.0391 23.7167 92.0391 21.5362C92.0391 19.3556 92.7572 17.6509 94.1935 16.4211C95.6297 15.1913 97.5004 14.5764 99.8055 14.5764C102.111 14.5764 103.981 15.1913 105.418 16.4211C106.854 17.6509 107.572 19.3556 107.572 21.5362C107.572 23.7167 106.854 25.4214 105.418 26.6512C103.98 27.881 102.11 28.4959 99.8055 28.4959ZM102.545 24.166C103.21 23.4861 103.542 22.6095 103.542 21.5371C103.542 20.4646 103.21 19.588 102.545 18.9073C101.88 18.2274 100.966 17.887 99.8055 17.887C98.6353 17.887 97.7265 18.2274 97.079 18.9073C96.4139 19.5871 96.0818 20.4637 96.0818 21.5371C96.0818 22.6104 96.4139 23.4861 97.079 24.166C97.7265 24.8458 98.6353 25.1862 99.8055 25.1862C100.966 25.1862 101.88 24.8467 102.545 24.166Z" fill="white"/>
<path d="M110.829 9.47583H114.752V28.2349H110.829V9.47583Z" fill="white"/>
<path d="M128.318 14.8391H132.507L127.52 28.2343H121.775L116.788 14.8391H120.991L124.555 24.9639H124.741L128.318 14.8391Z" fill="white"/>
<path d="M149.501 21.5371L149.421 22.5573H138.117C138.117 23.3598 138.441 24.0488 139.088 24.6244C139.718 25.2091 140.626 25.501 141.815 25.501C142.488 25.501 143.091 25.3875 143.623 25.1606C144.128 24.9337 144.461 24.7077 144.62 24.4807L144.873 24.1669H149.169C149.151 24.2895 149.111 24.4414 149.049 24.6244C148.978 24.8422 148.783 25.1871 148.464 25.6575C148.127 26.1717 147.723 26.6164 147.254 26.9916C146.739 27.3841 146.017 27.7282 145.086 28.0246C144.11 28.3385 143.02 28.4959 141.815 28.4959C139.492 28.4959 137.608 27.881 136.163 26.6512C134.717 25.4214 133.995 23.7167 133.995 21.5362C133.995 19.3556 134.713 17.6509 136.15 16.4211C137.586 15.1913 139.456 14.5764 141.762 14.5764C144.049 14.5764 145.91 15.1913 147.347 16.4211C148.783 17.6518 149.501 19.3565 149.501 21.5371ZM141.762 17.5731C140.627 17.5731 139.749 17.8522 139.128 18.4104C138.49 18.9777 138.171 19.5743 138.171 20.203H145.325C145.325 19.5579 145.019 18.9558 144.408 18.3976C143.778 17.8477 142.896 17.5731 141.762 17.5731Z" fill="white"/>
<path d="M163.001 14.7081V18.9593C162.416 18.6894 161.627 18.5668 160.633 18.5668C157.466 18.5668 156.684 20.8855 156.684 22.3084V28.2341H152.761V14.8389H156.684V16.7678C158.396 14.9378 160.443 14.5718 163.001 14.7081Z" fill="white"/>
<path d="M7.44182 26.1994V37.1688C5.31253 35.5235 0 29.9254 0 20.8171C0 20.8171 3.50696 22.4807 7.44182 26.1994Z" fill="#B2B6FF"/>
<path d="M19.3486 26.1994V37.1688C21.4779 35.5235 26.7905 29.9254 26.7905 20.8171C26.7905 20.8171 23.2835 22.4807 19.3486 26.1994Z" fill="#B2B6FF"/>
<path d="M13.3953 0C13.3953 0 9.96924 11.0188 0 16.1046C0 16.1046 7.99995 19.8077 13.3953 28.8235C18.7906 19.8077 26.7905 16.1046 26.7905 16.1046C16.8213 11.0188 13.3953 0 13.3953 0Z" fill="#B2B6FF"/>
<path d="M16.5582 30.7075C16.5749 35.215 15.4558 39.3335 13.3954 41.9999C11.3349 39.3335 10.2159 35.215 10.2326 30.7075C11.3312 32.0124 12.4075 33.4856 13.3954 35.1372C14.3833 33.4856 15.4596 32.0124 16.5582 30.7075Z" fill="#B2B6FF"/>
</svg>
