<svg width="23" height="15" viewBox="0 0 23 15" fill="none" xmlns="http://www.w3.org/2000/svg">
<path d="M14.6098 12.6025H8.39062V1.5083H14.6098V12.6025Z" fill="#FF5F00"/>
<path d="M8.78514 7.05569C8.78514 4.80519 9.84668 2.80051 11.4998 1.50861C10.2909 0.563916 8.76526 5.81741e-05 7.1072 5.81741e-05C3.1819 5.81741e-05 0 3.15892 0 7.05569C0 10.9525 3.1819 14.1113 7.1072 14.1113C8.76526 14.1113 10.2909 13.5475 11.4998 12.6028C9.84668 11.3109 8.78514 9.30619 8.78514 7.05569Z" fill="#EB001B"/>
<path d="M23.0002 7.05569C23.0002 10.9525 19.8183 14.1113 15.893 14.1113C14.235 14.1113 12.7093 13.5475 11.5 12.6028C13.1535 11.3109 14.2151 9.30619 14.2151 7.05569C14.2151 4.80519 13.1535 2.80051 11.5 1.50861C12.7093 0.563916 14.235 5.81741e-05 15.893 5.81741e-05C19.8183 5.81741e-05 23.0002 3.15892 23.0002 7.05569Z" fill="#F79E1B"/>
</svg>
