<svg width="45" height="14" viewBox="0 0 45 14" fill="none" xmlns="http://www.w3.org/2000/svg">
<g clip-path="url(#clip0_3313_10762)">
<path d="M9.91411 2.26634L8.24323 8.1563H7.95738L6.28651 2.26634C6.00066 1.26965 5.10361 0.583496 4.07841 0.583496H0.0712891V13.4052H4.08334V5.82734H4.36922L6.66605 13.4052H9.53462L11.8265 5.82734H12.1124V13.4052H16.1244V0.583496H12.1173C11.097 0.583496 10.2 1.26965 9.91411 2.26634ZM32.1282 13.4052H36.165V9.61376H40.2265C42.3507 9.61376 44.1595 8.39168 44.8595 6.67379H32.1282V13.4052ZM24.9766 1.93578L22.1524 8.16132H21.8665V0.583496H17.8544V13.4052H21.2602C22.1573 13.4052 22.9704 12.8742 23.3451 12.0529L26.1693 5.83236H26.4552V13.4052H30.4672V0.583496H27.0614C26.1643 0.583496 25.3512 1.11439 24.9766 1.93578Z" fill="#006848"/>
<path d="M40.411 0C41.5692 0 42.6191 0.450762 43.4128 1.19202C44.2999 2.0134 44.8568 3.19541 44.8568 4.51264C44.8568 4.78307 44.8273 5.04855 44.7829 5.30898H37.3306C34.8069 5.30898 32.6678 3.62612 31.9484 1.3022C31.9384 1.27716 31.9335 1.24711 31.9238 1.21706C31.904 1.14694 31.8891 1.07181 31.8696 1.00169C31.7956 0.676142 31.7463 0.345584 31.7266 0H40.411Z" fill="url(#paint0_linear_3313_10762)"/>
</g>
<defs>
<linearGradient id="paint0_linear_3313_10762" x1="44.8568" y1="16.6039" x2="31.8068" y2="16.6039" gradientUnits="userSpaceOnUse">
<stop stop-color="#1E5CD8"/>
<stop offset="1" stop-color="#02AFFF"/>
</linearGradient>
<clipPath id="clip0_3313_10762">
<rect width="45" height="14" fill="white"/>
</clipPath>
</defs>
</svg>
