<svg width="18" height="13" viewBox="0 0 18 13" fill="none" xmlns="http://www.w3.org/2000/svg">
<path fill-rule="evenodd" clip-rule="evenodd" d="M2.33374 6.5C2.39526 6.61794 2.47648 6.76626 2.57793 6.9367C2.85093 7.39534 3.26569 8.00618 3.83071 8.61466C4.96119 9.8321 6.65097 11 8.99986 11C11.3488 11 13.0385 9.8321 14.169 8.61466C14.734 8.00618 15.1488 7.39534 15.4218 6.9367C15.5233 6.76626 15.6045 6.61794 15.666 6.5C15.6045 6.38206 15.5233 6.23374 15.4218 6.0633C15.1488 5.60466 14.734 4.99382 14.169 4.38534C13.0385 3.1679 11.3488 2 8.99986 2C6.65097 2 4.96119 3.1679 3.83071 4.38534C3.26569 4.99382 2.85093 5.60466 2.57793 6.0633C2.47648 6.23374 2.39526 6.38206 2.33374 6.5ZM16.4999 6.5C17.1892 6.20456 17.1891 6.20426 17.189 6.20393L17.1878 6.20132L17.1856 6.19615L17.1785 6.18019C17.1727 6.16708 17.1646 6.14909 17.1542 6.12654C17.1334 6.08145 17.1033 6.01807 17.0638 5.939C16.9847 5.78099 16.8676 5.55965 16.7107 5.29607C16.3978 4.77034 15.9219 4.06868 15.2682 3.36466C13.9612 1.9571 11.901 0.5 8.99986 0.5C6.09876 0.5 4.03854 1.9571 2.73152 3.36466C2.07779 4.06868 1.60193 4.77034 1.28899 5.29607C1.1321 5.55965 1.01499 5.78099 0.935978 5.939C0.896446 6.01807 0.866368 6.08145 0.845541 6.12654C0.835125 6.14909 0.827015 6.16708 0.821186 6.18019L0.814148 6.19615L0.811904 6.20132L0.811099 6.20318L0.810776 6.20393C0.810637 6.20426 0.810506 6.20456 1.49987 6.5L0.810776 6.20393C0.729921 6.39259 0.729651 6.60678 0.810506 6.79544L1.49987 6.5C0.810506 6.79544 0.810367 6.79511 0.810506 6.79544L0.811099 6.79682L0.811904 6.79868L0.814148 6.80385L0.821186 6.81981C0.827015 6.83292 0.835125 6.85091 0.845541 6.87346C0.866368 6.91855 0.896446 6.98193 0.935978 7.061C1.01499 7.21901 1.1321 7.44035 1.28899 7.70393C1.60193 8.22966 2.07779 8.93132 2.73152 9.63534C4.03854 11.0429 6.09876 12.5 8.99986 12.5C11.901 12.5 13.9612 11.0429 15.2682 9.63534C15.9219 8.93132 16.3978 8.22966 16.7107 7.70393C16.8676 7.44035 16.9847 7.21901 17.0638 7.061C17.1033 6.98193 17.1334 6.91855 17.1542 6.87346C17.1646 6.85091 17.1727 6.83292 17.1785 6.81981L17.1856 6.80385L17.1878 6.79868L17.189 6.79607C17.1891 6.79574 17.1892 6.79544 16.4999 6.5ZM16.4999 6.5L17.189 6.79607C17.2698 6.60741 17.2698 6.39259 17.189 6.20393L16.4999 6.5ZM5.99987 5.75C5.99987 4.50736 7.00722 3.5 8.24986 3.5H9.74986C10.9925 3.5 11.9999 4.50736 11.9999 5.75V7.25C11.9999 8.49264 10.9925 9.5 9.74986 9.5H8.24986C7.00722 9.5 5.99987 8.49264 5.99987 7.25V5.75ZM8.24986 5C7.83565 5 7.49986 5.33579 7.49986 5.75V7.25C7.49986 7.66421 7.83565 8 8.24986 8H9.74986C10.1641 8 10.4999 7.66421 10.4999 7.25V5.75C10.4999 5.33579 10.1641 5 9.74986 5H8.24986Z" fill="#6C6C7A"/>
</svg>
