<svg width="24" height="24" viewBox="0 0 24 24" fill="none" xmlns="http://www.w3.org/2000/svg">
<path d="M12 0.959961C18.0974 0.959961 23.04 5.90252 23.04 12C23.04 18.0974 18.0974 23.04 12 23.04C5.90252 23.04 0.959961 18.0974 0.959961 12C0.959961 5.90252 5.90252 0.959961 12 0.959961ZM15.8083 16.5C16.0113 15.8769 16.9627 9.66764 17.0803 8.44412C17.1158 8.07356 16.9987 7.82732 16.7692 7.7174C16.4918 7.58396 16.0809 7.65068 15.6043 7.82252C14.9505 8.0582 6.59276 11.6068 6.10988 11.8123C5.65196 12.0067 5.219 12.2188 5.219 12.526C5.219 12.742 5.34716 12.8635 5.70044 12.9897C6.06812 13.1208 6.99404 13.4016 7.54076 13.5523C8.06732 13.6977 8.66684 13.5715 9.00284 13.3627C9.359 13.1414 13.4692 10.391 13.7644 10.15C14.0592 9.90908 14.2944 10.2177 14.0534 10.4592C13.8124 10.7001 10.991 13.4385 10.619 13.8177C10.1673 14.278 10.488 14.7552 10.7908 14.9462C11.1369 15.1641 13.6257 16.8336 14.0006 17.1014C14.3755 17.3692 14.7556 17.4907 15.1036 17.4907C15.4516 17.4907 15.635 17.0323 15.8083 16.5Z" fill="#8C8E94"/>
</svg>
