<svg width="43" height="14" viewBox="0 0 43 14" fill="none" xmlns="http://www.w3.org/2000/svg">
<path fill-rule="evenodd" clip-rule="evenodd" d="M10.7504 13.8911H7.02907L4.23849 3.03032C4.10604 2.53073 3.8248 2.08905 3.41111 1.88089C2.37871 1.35776 1.24106 0.94143 0 0.731455V0.313314H5.99485C6.82223 0.313314 7.44276 0.94143 7.54618 1.67091L8.99409 9.50517L12.7137 0.313314H16.3316L10.7504 13.8911ZM18.3999 13.8911H14.8854L17.7794 0.313314H21.2939L18.3999 13.8911ZM25.8409 4.07461C25.9443 3.34332 26.5648 2.92518 27.2888 2.92518C28.4264 2.82019 29.6657 3.03016 30.6999 3.55148L31.3204 0.628116C30.2862 0.209975 29.1486 0 28.1161 0C24.705 0 22.2229 1.88073 22.2229 4.49094C22.2229 6.47666 23.9811 7.51929 25.2221 8.14741C26.5648 8.77372 27.0819 9.19186 26.9785 9.81816C26.9785 10.7576 25.9443 11.1758 24.9119 11.1758C23.6708 11.1758 22.4297 10.8626 21.2939 10.3395L20.6734 13.2647C21.9145 13.786 23.2571 13.996 24.4982 13.996C28.323 14.0991 30.6999 12.2202 30.6999 9.40002C30.6999 5.84854 25.8409 5.64038 25.8409 4.07461ZM43.0002 13.8911L40.2096 0.313314H37.2122C36.5916 0.313314 35.9711 0.731455 35.7642 1.35776L30.5968 13.8911H34.2147L34.9369 11.9072H39.3822L39.7959 13.8911H43.0002ZM37.7293 3.96969L38.7617 9.08694H35.8677L37.7293 3.96969Z" fill="white"/>
</svg>
