<svg width="22" height="14" viewBox="0 0 22 14" fill="none" xmlns="http://www.w3.org/2000/svg">
<path d="M21.8817 12.6011C20.9832 10.9841 18.6687 9.04111 17.7132 8.19561C17.4517 7.96411 17.4237 7.5636 17.6617 7.3076C19.4852 5.3481 20.9437 3.09661 21.4457 1.73611C21.6672 1.13511 21.2087 0.500105 20.5627 0.500105H18.6862C18.0677 0.500105 17.7057 0.722105 17.5332 1.07561C16.0177 4.18111 14.7177 5.52511 13.8077 6.31061C13.2982 6.75061 12.5037 6.38611 12.5037 5.71661C12.5037 4.42661 12.5037 2.75911 12.5037 1.57661C12.5037 1.00311 12.0347 0.539105 11.4562 0.539105L8.02819 0.500105C7.59669 0.500105 7.35019 0.988605 7.60919 1.33111L8.17519 2.14361C8.38819 2.42511 8.50319 2.76761 8.50319 3.11911L8.50019 6.7781C8.50019 7.4146 7.72869 7.7256 7.27069 7.2796C5.72119 5.77061 4.37669 2.68911 3.89269 1.21561C3.75269 0.789105 3.35319 0.501105 2.90019 0.500105L1.05169 0.495605C0.358188 0.495605 -0.148812 1.15311 0.0396881 1.81511C1.72869 7.74361 5.19419 13.3836 11.3702 13.9951C11.9787 14.0551 12.5037 13.5651 12.5037 12.9586V11.0356C12.5037 10.4841 12.9362 10.0101 13.4922 9.9961C13.5117 9.9956 13.5312 9.9956 13.5507 9.9956C15.1842 9.9956 17.0137 12.3731 17.6537 13.4851C17.8377 13.8051 18.1817 14.0001 18.5537 14.0001H21.0402C21.7657 14.0001 22.2312 13.2306 21.8817 12.6011Z" fill="#8C8E94"/>
</svg>
