<svg width="22" height="16" viewBox="0 0 22 16" fill="none" xmlns="http://www.w3.org/2000/svg">
<path d="M20.5517 2.95982C20.3604 1.9042 19.4492 1.13545 18.3917 0.895449C16.8092 0.559824 13.8804 0.319824 10.7117 0.319824C7.5448 0.319824 4.56918 0.559824 2.9848 0.895449C1.92918 1.13545 1.01605 1.85545 0.824805 2.95982C0.63168 4.15982 0.44043 5.83982 0.44043 7.99982C0.44043 10.1598 0.63168 11.8398 0.87168 13.0398C1.0648 14.0954 1.97606 14.8642 3.03168 15.1042C4.71168 15.4398 7.59168 15.6798 10.7604 15.6798C13.9292 15.6798 16.8092 15.4398 18.4892 15.1042C19.5448 14.8642 20.4561 14.1442 20.6492 13.0398C20.8404 11.8398 21.0804 10.1111 21.1292 7.99982C21.0317 5.83982 20.7917 4.15982 20.5517 2.95982ZM8.12043 11.3598V4.63982L13.9761 7.99982L8.12043 11.3598Z" fill="#8C8E94"/>
</svg>
